<svg width="28" height="28" viewBox="0 0 28 28" fill="none" xmlns="http://www.w3.org/2000/svg">
<path d="M9.61348 20.4125C9.33848 20.0875 9.20098 19.719 9.20098 19.307C9.20098 18.895 9.33848 18.551 9.61348 18.275L12.3885 15.5H1.62598C1.20098 15.5 0.844482 15.356 0.556482 15.068C0.268482 14.78 0.124982 14.424 0.125982 14C0.125982 13.575 0.269982 13.2185 0.557982 12.9305C0.845982 12.6425 1.20198 12.499 1.62598 12.5H12.3885L9.61348 9.725C9.31348 9.425 9.16348 9.06851 9.16348 8.65551C9.16348 8.24251 9.31348 7.8865 9.61348 7.5875C9.88848 7.2875 10.2325 7.13751 10.6455 7.13751C11.0585 7.13751 11.402 7.275 11.676 7.55L17.076 12.95C17.226 13.1 17.3325 13.2625 17.3955 13.4375C17.4585 13.6125 17.4895 13.8 17.4885 14C17.4885 14.2 17.4575 14.3875 17.3955 14.5625C17.3335 14.7375 17.227 14.9 17.076 15.05L11.676 20.45C11.376 20.75 11.026 20.8875 10.626 20.8625C10.226 20.8375 9.88848 20.6875 9.61348 20.4125ZM15.126 27.5C14.701 27.5 14.345 27.3565 14.058 27.0695C13.771 26.7825 13.627 26.426 13.626 26C13.626 25.575 13.77 25.2185 14.058 24.9305C14.346 24.6425 14.702 24.499 15.126 24.5H24.126V3.50001H15.126C14.701 3.50001 14.3445 3.356 14.0565 3.06801C13.7685 2.78 13.625 2.42401 13.626 2.00001C13.626 1.57501 13.77 1.21851 14.058 0.930505C14.346 0.642505 14.702 0.499005 15.126 0.500005H24.126C24.951 0.500005 25.6575 0.794005 26.2455 1.38201C26.8335 1.97001 27.127 2.67601 27.126 3.50001V24.5C27.126 25.325 26.832 26.0315 26.244 26.6195C25.656 27.2075 24.95 27.501 24.126 27.5H15.126Z" fill="#80B049"/>
</svg>
